<svg version="1.2" xmlns="http://www.w3.org/2000/svg" viewBox="0 0 816 815" width="816" height="815"><style>tspan{white-space:pre}.a{fill:#ff5226;stroke:#464c4c;stroke-width:8}.b{font-size: 28px;fill: #161a4a;font-weight: bold;font-family: "Biome Std"}.c{font-size: 21px;fill: #161a4a;font-weight: bold;font-family: "Biome Std"}</style><path fill-rule="evenodd" class="a" d="m723 445v96.2h50.4c20.9 0 37.8 16.9 37.8 37.8 0 20.9-16.9 37.8-37.8 37.8h-50.4v30.9c0 41.1-33.3 74.4-74.4 74.4h-30.9v50.4c0 20.9-17 37.8-37.8 37.8-20.9 0-37.8-16.9-37.8-37.8v-50.4h-96.2v50.4c0 20.9-17 37.8-37.8 37.8-20.9 0-37.8-16.9-37.8-37.8v-50.4h-96.2v50.4c0 20.9-17 37.8-37.8 37.8-20.9 0-37.8-16.9-37.8-37.8v-50.4h-31c-41 0-74.4-33.3-74.4-74.4v-30.9h-50.3c-20.9 0-37.8-16.9-37.8-37.8 0-20.9 16.9-37.8 37.8-37.8h50.3v-96.2h-50.3c-20.9 0-37.8-16.9-37.8-37.8 0-20.9 16.9-37.8 37.8-37.8h50.3v-96.2h-50.3c-20.9 0-37.8-16.9-37.8-37.8 0-20.9 16.9-37.8 37.8-37.8h50.3v-30.9c0-41.1 33.4-74.4 74.4-74.4h31v-50.4c0-20.9 16.9-37.8 37.8-37.8 20.8 0 37.8 16.9 37.8 37.8v50.4h96.2v-50.4c0-20.9 16.9-37.8 37.8-37.8 20.8 0 37.8 16.9 37.8 37.8v50.4h96.2v-50.4c0-20.9 16.9-37.8 37.8-37.8 20.8 0 37.8 16.9 37.8 37.8v50.4h30.9c41.1 0 74.4 33.3 74.4 74.4v30.9h50.4c20.9 0 37.8 16.9 37.8 37.8 0 20.9-16.9 37.8-37.8 37.8h-50.4v96.2h50.4c20.9 0 37.8 16.9 37.8 37.8 0 20.9-16.9 37.8-37.8 37.8zm-60.5-278.3c0-7.7-6.2-13.9-13.9-13.9h-481.1c-7.7 0-13.9 6.2-13.9 13.9v481c0 7.7 6.2 14 13.9 14h481.1c7.7 0 13.9-6.3 13.9-14z"/><text style="transform:matrix(16,0,0,16,218.358,533.722)" ><tspan x="0" y="0" class="b">a
</tspan></text><text style="transform:matrix(16,0,0,16,482.014,538.035)" ><tspan x="0" y="0" class="c">i
</tspan></text></svg>