<svg version="1.2" xmlns="http://www.w3.org/2000/svg" viewBox="0 0 40 40" width="40" height="40">
	<title>&lt;Group&gt;</title>
	<style>
		.s0 { fill: #ff5226;stroke: #464c4c;stroke-width: 2 } 
		.s1 { fill: #ffe055 } 
	</style>
	<g id="&lt;Group&gt;">
		<path id="&lt;Compound Path&gt;" fill-rule="evenodd" class="s0" d="m34.7 21.3v4.5h2.3c1 0 1.7 0.8 1.7 1.7 0 1-0.7 1.8-1.7 1.8h-2.3v1.4c0 1.9-1.6 3.5-3.5 3.5h-1.4v2.3c0 1-0.8 1.7-1.8 1.7-0.9 0-1.7-0.7-1.7-1.7v-2.3h-4.5v2.3c0 1-0.8 1.7-1.7 1.7-1 0-1.8-0.7-1.8-1.7v-2.3h-4.4v2.3c0 1-0.8 1.7-1.8 1.7-0.9 0-1.7-0.7-1.7-1.7v-2.3h-1.5c-1.9 0-3.4-1.6-3.4-3.5v-1.4h-2.3c-1 0-1.8-0.8-1.8-1.8 0-0.9 0.8-1.7 1.8-1.7h2.3v-4.5h-2.3c-1 0-1.8-0.8-1.8-1.7 0-1 0.8-1.8 1.8-1.8h2.3v-4.4h-2.3c-1 0-1.8-0.8-1.8-1.8 0-0.9 0.8-1.7 1.8-1.7h2.3v-1.5c0-1.9 1.5-3.4 3.4-3.4h1.5v-2.3c0-1 0.8-1.8 1.7-1.8 1 0 1.8 0.8 1.8 1.8v2.3h4.4v-2.3c0-1 0.8-1.8 1.8-1.8 0.9 0 1.7 0.8 1.7 1.8v2.3h4.5v-2.3c0-1 0.8-1.8 1.7-1.8 1 0 1.8 0.8 1.8 1.8v2.3h1.4c1.9 0 3.5 1.5 3.5 3.4v1.5h2.3c1 0 1.7 0.8 1.7 1.7 0 1-0.7 1.8-1.7 1.8h-2.3v4.4h2.3c1 0 1.7 0.8 1.7 1.8 0 0.9-0.7 1.7-1.7 1.7zm-2.8-12.9c0-0.3-0.3-0.6-0.7-0.6h-22.2c-0.4 0-0.7 0.3-0.7 0.6v22.3c0 0.4 0.3 0.7 0.7 0.7h22.2c0.4 0 0.7-0.3 0.7-0.7z"/>
		<path id="a
" fill-rule="evenodd" class="s1" d="m22.4 18.6v6.4h-3.3v-1.7q-0.6 1.1-1.4 1.5-0.9 0.5-2 0.5-1.6 0-2.6-1-1-1-1-2.7 0-1.9 1.2-2.8 1.3-1 3.9-1h1.9v-0.2q0-0.9-0.6-1.3-0.6-0.4-1.9-0.4-1 0-1.9 0.2-0.9 0.3-1.7 0.7v-2.7q1-0.3 2.1-0.4 1.1-0.2 2.1-0.2 2.8 0 4 1.2 1.2 1.2 1.2 3.9zm-3.3 1.4h-1.7q-1 0-1.5 0.3-0.5 0.4-0.5 1.2 0 0.6 0.4 1 0.4 0.4 1.2 0.4 0.9 0 1.5-0.7 0.6-0.7 0.6-1.8z"/>
		<path id="i
" class="s1" d="m25.1 26v-8.6h3.2v8.6zm0-9.7v-2.2h3.3v2.2z"/>
	</g>
</svg>