<svg version="1.2" xmlns="http://www.w3.org/2000/svg" viewBox="0 0 816 815" width="816" height="815">
	<title>AI Logo-ai</title>
	<style>
		.s0 { fill: #ff5226;stroke: #464c4c;stroke-width: 8 } 
		.s1 { fill: #161a4a } 
	</style>
	<g id="Layer 1">
		<g id="&lt;Group&gt;">
			<path id="&lt;Compound Path&gt;" fill-rule="evenodd" class="s0" d="m723 445v96.2h50.4c20.9 0 37.8 16.9 37.8 37.8 0 20.9-16.9 37.8-37.8 37.8h-50.4v30.9c0 41.1-33.3 74.4-74.4 74.4h-30.9v50.4c0 20.9-17 37.8-37.8 37.8-20.9 0-37.8-16.9-37.8-37.8v-50.4h-96.2v50.4c0 20.9-17 37.8-37.8 37.8-20.9 0-37.8-16.9-37.8-37.8v-50.4h-96.2v50.4c0 20.9-17 37.8-37.8 37.8-20.9 0-37.8-16.9-37.8-37.8v-50.4h-31c-41 0-74.4-33.3-74.4-74.4v-30.9h-50.3c-20.9 0-37.8-16.9-37.8-37.8 0-20.9 16.9-37.8 37.8-37.8h50.3v-96.2h-50.3c-20.9 0-37.8-16.9-37.8-37.8 0-20.9 16.9-37.8 37.8-37.8h50.3v-96.2h-50.3c-20.9 0-37.8-16.9-37.8-37.8 0-20.9 16.9-37.8 37.8-37.8h50.3v-30.9c0-41.1 33.4-74.4 74.4-74.4h31v-50.4c0-20.9 16.9-37.8 37.8-37.8 20.8 0 37.8 16.9 37.8 37.8v50.4h96.2v-50.4c0-20.9 16.9-37.8 37.8-37.8 20.8 0 37.8 16.9 37.8 37.8v50.4h96.2v-50.4c0-20.9 16.9-37.8 37.8-37.8 20.8 0 37.8 16.9 37.8 37.8v50.4h30.9c41.1 0 74.4 33.3 74.4 74.4v30.9h50.4c20.9 0 37.8 16.9 37.8 37.8 0 20.9-16.9 37.8-37.8 37.8h-50.4v96.2h50.4c20.9 0 37.8 16.9 37.8 37.8 0 20.9-16.9 37.8-37.8 37.8zm-60.5-278.3c0-7.7-6.2-13.9-13.9-13.9h-481.1c-7.7 0-13.9 6.2-13.9 13.9v481c0 7.7 6.2 14 13.9 14h481.1c7.7 0 13.9-6.3 13.9-14z"/>
			<path id="a
" fill-rule="evenodd" class="s1" d="m458.7 396v138h-71.1v-35.8q-14.1 22-31.9 32.1-17.7 10-43.1 10-34.2 0-55.7-21.8-21.2-22.1-21.2-57 0-42.6 26.6-62.4 26.7-19.9 83.8-19.9h41.5v-6q0-18.4-13.2-26.8-13.1-8.7-41.1-8.7-22.6 0-42.1 5-19.5 5-36.2 14.9v-58.9q22.6-6.1 45.4-9.1 22.9-3.2 45.7-3.2 59.6 0 86 25.9 26.6 25.7 26.6 83.7zm-71.1 29.2h-36.6q-22 0-33.2 8.2-11.1 8.2-11.1 24.2 0 14.7 8.9 23.1 9 8.2 25 8.2 19.9 0 33.5-15.6 13.5-15.7 13.5-39.3z"/>
			<path id="i
" class="s1" d="m515.9 538v-185.3h70.4v185.3zm0-209.1v-48.3h70.5v48.3z"/>
		</g>
	</g>
</svg>